<?xml version="1.0" encoding="UTF-8"?>
<svg id="Layer_1" data-name="Layer 1" xmlns="http://www.w3.org/2000/svg" viewBox="0 0 1876.26 674.4">
  <defs>
    <style>
      .cls-1 {
        fill: none;
        stroke: #3aff49;
        stroke-miterlimit: 10;
        stroke-width: 3px;
      }
    </style>
  </defs>
  <g>
    <path class="cls-1" d="m1.5,276.79h106.82v307.1H1.5v-307.1Z"/>
    <path class="cls-1" d="m362,590.56c-47.18,0-86.42-3.86-117.72-11.57-31.31-7.71-54.74-20.03-70.32-36.94-15.58-16.91-23.37-39.17-23.37-66.76s7.79-49.92,23.37-66.98c15.58-17.06,39.01-29.52,70.32-37.39,31.3-7.86,70.54-11.79,117.72-11.79s85.82,3.94,116.83,11.79c31,7.87,54.22,20.33,69.65,37.39,15.42,17.07,23.14,39.39,23.14,66.98s-7.72,49.85-23.14,66.76c-15.43,16.91-38.65,29.23-69.65,36.94-31.01,7.71-69.95,11.57-116.83,11.57Zm0-64.53c21.95,0,40.35-1.85,55.19-5.56,14.83-3.71,26.11-9.35,33.83-16.91,7.71-7.57,11.57-16.98,11.57-28.26s-3.78-20.77-11.35-28.48c-7.57-7.71-18.77-13.5-33.6-17.36-14.84-3.85-33.38-5.79-55.63-5.79s-40.58,1.93-55.86,5.79c-15.29,3.86-26.86,9.57-34.71,17.13-7.87,7.57-11.79,17.13-11.79,28.71s3.85,20.7,11.57,28.26c7.71,7.57,19.21,13.21,34.49,16.91,15.28,3.71,34.05,5.56,56.3,5.56Zm-60.97-210.07l89.9-66.76h142.42l-125.06,66.76h-107.26Z"/>
    <path class="cls-1" d="m607.22,365.8h100.58l6.23,84.56v222.53h-106.82v-307.1Zm271.49,224.76c-26.7,0-50.74-2.75-72.1-8.23-21.36-5.49-39.61-13.35-54.74-23.59s-26.7-22.48-34.72-36.72c-8.01-14.24-12.02-29.97-12.02-47.18s4.01-32.86,12.02-46.96c8.01-14.09,19.58-26.26,34.72-36.49s33.38-18.1,54.74-23.59c21.36-5.49,45.4-8.23,72.1-8.23,32.04,0,60.6,4.53,85.68,13.57,25.07,9.05,44.73,22.18,58.97,39.39,14.24,17.21,21.36,37.98,21.36,62.31,0,25.52-7.12,46.88-21.36,64.09-14.24,17.21-33.9,30.12-58.97,38.72-25.08,8.6-53.63,12.91-85.68,12.91Zm-40.06-68.09c20.17,0,37.39-1.78,51.63-5.34,14.24-3.56,25.07-8.82,32.49-15.8,7.41-6.97,11.13-15.8,11.13-26.48,0-15.72-8.31-27.59-24.92-35.61-16.62-8.01-40.06-12.02-70.32-12.02-22.55,0-43.25,1.33-62.09,4.01-18.85,2.67-33.98,7.5-45.4,14.46-11.43,6.98-17.13,16.69-17.13,29.15s5.71,22.18,17.13,29.15c11.42,6.97,26.55,11.79,45.4,14.46,18.84,2.67,39.53,4.01,62.09,4.01Z"/>
    <path class="cls-1" d="m1381.19,505.55h105.04c-2.67,17.21-11.2,32.2-25.59,44.95-14.39,12.76-35.31,22.63-62.75,29.6-27.45,6.97-62.39,10.46-104.81,10.46-44.81,0-83.45-3.56-115.94-10.68-32.49-7.12-57.49-19.14-74.99-36.05-17.51-16.91-26.26-39.76-26.26-68.54s8.53-51.25,25.59-68.32c17.06-17.06,41.76-29.3,74.1-36.72,32.34-7.41,71.5-11.13,117.5-11.13s82.04,4.01,110.82,12.02c28.78,8.01,49.99,21,63.64,38.94,13.64,17.96,20.17,42.21,19.58,72.77h-302.64c1.48,7.72,5.71,14.84,12.68,21.36,6.97,6.53,17.8,11.79,32.49,15.8,14.69,4.01,34.34,6.01,58.97,6.01s46.51-1.78,62.98-5.34c16.47-3.56,26.33-8.6,29.6-15.13Zm-92.57-81.89c-31.45,0-55.41,3.42-71.88,10.24-16.47,6.83-26.19,13.65-29.15,20.47h195.83c-2.08-7.71-10.39-14.76-24.92-21.14-14.54-6.38-37.83-9.57-69.88-9.57Z"/>
    <path class="cls-1" d="m1872.09,432.56l-240.78,103.7-4.01-19.14h247.46v66.76h-345.37v-66.76l239-103.7,4.01,19.14h-243.01v-66.76h342.7v66.76Z"/>
  </g>
  <g>
    <path class="cls-1" d="m1.5,8.19h107.02v218.5H1.5V8.19ZM269.05,1.5c17.54,0,34.48,1.86,50.83,5.57,16.35,3.72,30.99,10.03,43.92,18.95s23.26,21.11,30.99,36.56c7.73,15.46,11.59,34.93,11.59,58.41v105.68h-107.02v-92.3c0-22.3-5.8-38.13-17.39-47.49-11.59-9.36-32.55-14.05-62.87-14.05-16.05,0-31.59,1.78-46.6,5.35-15.01,3.57-28.47,7.8-40.35,12.71-11.89,4.91-21.26,9.74-28.09,14.49l-.89-16.94c1.18-5.35,5.27-12.85,12.26-22.52,6.98-9.66,17.17-19.4,30.54-29.21,13.38-9.81,30.25-18.13,50.61-24.97,20.36-6.84,44.51-10.26,72.46-10.26Zm292.52,0c17.54,0,34.48,1.86,50.83,5.57,16.35,3.72,30.99,10.03,43.92,18.95,12.93,8.92,23.26,21.11,30.99,36.56,7.73,15.46,11.59,34.93,11.59,58.41v105.68h-107.02v-92.3c0-22.3-5.8-38.13-17.39-47.49-11.59-9.36-32.55-14.05-62.87-14.05-16.05,0-31.59,1.78-46.6,5.35-15.01,3.57-28.47,7.8-40.35,12.71-11.89,4.91-21.26,9.74-28.09,14.49l-.89-21.4c1.18-4.46,5.64-11.15,13.38-20.07,7.73-8.92,18.65-18.13,32.77-27.65,14.12-9.51,31.21-17.68,51.28-24.52,20.07-6.84,42.88-10.26,68.45-10.26Z"/>
    <path class="cls-1" d="m900.9,232.93c-32.11,0-60.64-4.54-85.62-13.6-24.97-9.06-44.67-22.22-59.08-39.46-14.42-17.24-21.63-38.05-21.63-62.43s7.2-46.97,21.63-64.21c14.42-17.24,34.11-30.17,59.08-38.79,24.97-8.62,53.51-12.93,85.62-12.93,35.67,0,66.51,4.84,92.52,14.49,26.01,9.66,46.08,23.19,60.2,40.58,14.12,17.39,21.18,37.68,21.18,60.87,0,17.24-4.01,32.93-12.04,47.04-8.03,14.12-19.62,26.31-34.78,36.56-15.16,10.26-33.44,18.14-54.85,23.63-21.4,5.5-45.48,8.25-72.24,8.25Zm40.13-67.78c22.59,0,43.32-1.41,62.21-4.24,18.87-2.82,34.04-7.65,45.48-14.49,11.44-6.83,17.17-16.5,17.17-28.98s-5.73-22.59-17.17-29.43c-11.45-6.83-26.61-11.59-45.48-14.27-18.88-2.68-39.62-4.01-62.21-4.01-30.32,0-53.81,3.94-70.45,11.82-16.65,7.88-24.97,19.84-24.97,35.9,0,10.41,3.71,19.17,11.15,26.31,7.43,7.13,18.28,12.49,32.55,16.05s31.51,5.35,51.72,5.35Zm124.86-156.96h107.02v218.5h-100.77c-2.08-13.67-3.64-26.9-4.68-39.69-1.04-12.78-1.56-27.79-1.56-45.04V8.19Z"/>
    <path class="cls-1" d="m1213.03,8.19h107.02v218.5h-107.02V8.19Zm222.06,82.49c-19.33,0-37.01,1.78-53.06,5.35s-29.73,7.8-41.02,12.71c-11.3,4.9-19.77,9.74-25.42,14.49l-.89-21.4c.89-6.24,3.27-13.6,7.13-22.07,3.86-8.47,9.06-17.24,15.61-26.31,6.54-9.06,14.56-17.54,24.08-25.42,9.51-7.87,20.44-14.27,32.77-19.17,12.33-4.9,25.93-7.36,40.8-7.36v89.18Z"/>
    <path class="cls-1" d="m1871.63,131.71c0,21.4-6.69,39.69-20.07,54.85-13.38,15.16-34.49,26.75-63.32,34.78-28.84,8.03-66.29,12.04-112.37,12.04s-85.25-3.72-117.5-11.15c-32.26-7.43-56.78-19.62-73.57-36.56-16.8-16.95-25.19-39.53-25.19-67.78s8.4-50.9,25.19-68c16.79-17.09,41.32-29.43,73.57-37.01,32.25-7.58,71.42-11.37,117.5-11.37s83.39,4.01,111.92,12.04c28.54,8.03,49.5,19.62,62.87,34.78,13.38,15.16,20.21,33.3,20.51,54.4h-98.1c-4.76-11.59-15.46-20.58-32.11-26.98-16.65-6.39-38.35-9.59-65.1-9.59-21.7,0-40.58,1.56-56.63,4.68-16.05,3.12-28.47,8.4-37.23,15.83-8.77,7.43-13.15,17.84-13.15,31.21s4.31,23.34,12.93,30.77c8.62,7.43,20.96,12.64,37.01,15.61,16.05,2.97,35.07,4.46,57.08,4.46,26.75,0,48.53-3.19,65.33-9.59,16.79-6.39,27.57-15.53,32.33-27.42h98.1Z"/>
  </g>
</svg>